<svg xmlns="http://www.w3.org/2000/svg" width="1345.79" height="448">
  <defs>
    <clipPath id="a">
      <path d="M239.41 175.34a4 4 0 0 0-6.77-2.16L211.88 194l-16.34-31.11a4 4 0 0 0-7.08 0l-8.93 17-22.4-41.77a4 4 0 0 0-7.48 1.28L128 278l57.9 32.46a12 12 0 0 0 11.7 0L256 278z" fill="none"/>
    </clipPath>
    <linearGradient x1="152.9" y1="230.54" x2="144.9" y2="226.36" gradientUnits="userSpaceOnUse" id="b">
      <stop offset="0" stop-color="#a52714"/>
      <stop offset=".4" stop-color="#a52714" stop-opacity=".5"/>
      <stop offset=".8" stop-color="#a52714" stop-opacity="0"/>
    </linearGradient>
    <linearGradient x1="186.89" y1="218.91" x2="183.31" y2="215.33" gradientUnits="userSpaceOnUse" id="c">
      <stop offset="0" stop-color="#a52714" stop-opacity=".8"/>
      <stop offset=".5" stop-color="#a52714" stop-opacity=".21"/>
      <stop offset="1" stop-color="#a52714" stop-opacity="0"/>
    </linearGradient>
    <linearGradient x1="123.188" y1="168.281" x2="256.875" y2="301.968" gradientUnits="userSpaceOnUse" id="d">
      <stop offset="0" stop-color="#fff" stop-opacity=".1"/>
      <stop offset="1" stop-color="#fff" stop-opacity="0"/>
    </linearGradient>
  </defs>
  <g fill="none">
    <g clip-path="url(#a)">
      <path d="M128 278l21.66-138.61a4 4 0 0 1 7.48-1.27l22.4 41.78 8.93-17a4 4 0 0 1 7.08 0L256 278z" fill="#ffa000"/>
      <path d="M202 137l-106-9v192l32-42z" fill="url(#b)" opacity=".12"/>
      <path d="M202.83 224.01l-23.3-44.12L128 278z" fill="#f57c00"/>
      <path d="M96 128h192v192H96z" fill="url(#c)" opacity=".2"/>
      <path d="M256 278l-16.59-102.66a4 4 0 0 0-6.77-2.16L128 278l57.9 32.47a12 12 0 0 0 11.7 0z" fill="#ffca28"/>
      <path d="M239.41 175.34a4 4 0 0 0-6.77-2.16L211.88 194l-16.34-31.11a4 4 0 0 0-7.08 0l-8.93 17-22.4-41.77a4 4 0 0 0-7.48 1.28L128 278h-.08l.07.08.57.28L211.83 195l20.78-20.8a4 4 0 0 1 6.78 2.16l16.45 101.74.16-.1zM128.19 277.81l21.47-137.42a4 4 0 0 1 7.48-1.28l22.4 41.78 8.93-17a4 4 0 0 1 7.08 0l16 30.43z" fill-opacity=".2" fill="#fff"/>
      <path d="M197.6 309.49a12 12 0 0 1-11.7 0l-57.76-32.4-.14.91 57.9 32.46a12 12 0 0 0 11.7 0L256 278l-.15-.92z" fill="#a52714" opacity=".2"/>
      <path d="M239.41 175.34a4 4 0 0 0-6.77-2.16L211.88 194l-16.34-31.11a4 4 0 0 0-7.08 0l-8.93 17-22.4-41.77a4 4 0 0 0-7.48 1.28L128 278l57.9 32.46a12 12 0 0 0 11.7 0L256 278z" fill="url(#d)"/>
    </g>
    <circle cx="240" cy="272" r="40" fill="#757575"/>
    <path d="M256.014 281.512v-19.02l-6.736-6.736 4.238-4.24L262 260v21.54l-.014.008v2.458l-8.476 8.478-4.232-4.234zm-32.028-.006l6.736 6.738-4.238 4.24L218 284v-21.54l.014-.008v-2.458l8.476-8.478 4.232 4.234-6.736 6.738v19.02zm7.016-6.5a3.009 3.009 0 1 1 0-6.014 3.009 3.009 0 0 1 0 6.012zm8.996 0a3.009 3.009 0 1 1 0-6.014 3.009 3.009 0 0 1 0 6.012zm8.996 0a3.009 3.009 0 1 1 0-6.014 3.009 3.009 0 0 1 0 6.012z" fill="#fff" fill-rule="evenodd"/>
    <path d="M383.61 274.05c-13.48 0-24.787-4.567-33.92-13.7-9.127-9.127-13.69-20.517-13.69-34.17 0-13.653 4.563-25.047 13.69-34.18 9.133-9.133 20.44-13.7 33.92-13.7 13.827 0 25.05 4.993 33.67 14.98l-8.2 7.94c-6.227-7.767-14.717-11.65-25.47-11.65-9.98 0-18.407 3.37-25.28 10.11-6.867 6.74-10.3 15.573-10.3 26.5 0 10.92 3.433 19.75 10.3 26.49 6.873 6.74 15.3 10.11 25.28 10.11 11.007 0 20.393-4.437 28.16-13.31l8.19 8.19c-4.18 5.04-9.427 9.03-15.74 11.97-6.313 2.947-13.183 4.42-20.61 4.42zm57.35-93.7V272h-11.78v-91.65zm18.56 36.42c6.053-6.36 13.773-9.54 23.16-9.54s17.11 3.18 23.17 9.54c6.06 6.353 9.09 14.31 9.09 23.87s-3.03 17.517-9.09 23.87c-6.06 6.36-13.783 9.54-23.17 9.54-9.387 0-17.107-3.18-23.16-9.54-6.06-6.353-9.09-14.31-9.09-23.87s3.03-17.517 9.09-23.87m8.76 40.32c4.053 4.14 8.853 6.21 14.4 6.21 5.547 0 10.347-2.07 14.4-6.21 4.053-4.14 6.08-9.623 6.08-16.45s-2.027-12.31-6.08-16.45c-4.053-4.14-8.853-6.21-14.4-6.21-5.547 0-10.347 2.07-14.4 6.21-4.053 4.14-6.08 9.623-6.08 16.45s2.027 12.31 6.08 16.45zm111.17-47.81V272h-11.26v-8.7h-.51c-1.793 2.987-4.527 5.523-8.2 7.61-3.667 2.093-7.547 3.14-11.64 3.14-7.853 0-13.807-2.39-17.86-7.17-4.053-4.78-6.08-11.18-6.08-19.2v-38.4h11.78v36.48c0 11.693 5.16 17.54 15.48 17.54 4.867 0 8.837-1.963 11.91-5.89 3.073-3.927 4.61-8.45 4.61-13.57v-34.56zm39.3 64.77c-8.107 0-15.103-3.2-20.99-9.6-5.893-6.4-8.84-14.337-8.84-23.81 0-9.473 2.947-17.41 8.84-23.81 5.887-6.4 12.883-9.6 20.99-9.6 4.78 0 9.067 1.023 12.86 3.07 3.8 2.053 6.637 4.613 8.51 7.68h.52l-.52-8.7v-28.93h11.78V272h-11.26v-8.7h-.52c-1.873 3.067-4.71 5.627-8.51 7.68-3.793 2.047-8.08 3.07-12.86 3.07m1.92-10.75c5.547 0 10.26-2.05 14.14-6.15 3.887-4.093 5.83-9.597 5.83-16.51 0-6.913-1.943-12.417-5.83-16.51-3.88-4.1-8.593-6.15-14.14-6.15-5.46 0-10.153 2.07-14.08 6.21-3.927 4.14-5.89 9.623-5.89 16.45s1.963 12.31 5.89 16.45c3.927 4.14 8.62 6.21 14.08 6.21zm87.55-30.6V272h-11.78v-91.65h53.51v11.27h-41.73v30.08h37.63v11zm105.47-23.42V272h-11.26v-8.7h-.51c-1.793 2.987-4.527 5.523-8.2 7.61-3.667 2.093-7.547 3.14-11.64 3.14-7.853 0-13.807-2.39-17.86-7.17-4.053-4.78-6.08-11.18-6.08-19.2v-38.4h11.78v36.48c0 11.693 5.16 17.54 15.48 17.54 4.867 0 8.837-1.963 11.91-5.89 3.073-3.927 4.61-8.45 4.61-13.57v-34.56zm14.34 0h11.26v8.7h.51c1.707-2.987 4.397-5.523 8.07-7.61 3.667-2.093 7.59-3.14 11.77-3.14 7.767 0 13.7 2.39 17.8 7.17 4.093 4.78 6.14 11.18 6.14 19.2V272H871.8v-36.61c0-11.607-5.16-17.41-15.48-17.41-4.867 0-8.837 1.943-11.91 5.83-3.073 3.88-4.61 8.38-4.61 13.5V272h-11.77zm96.77 64.77c-9.387 0-17.11-3.18-23.17-9.54-6.06-6.353-9.09-14.31-9.09-23.87s3.03-17.517 9.09-23.87c6.06-6.36 13.783-9.54 23.17-9.54 6.993 0 12.793 1.707 17.4 5.12 4.613 3.413 7.987 7.723 10.12 12.93l-10.76 4.48c-3.24-7.853-9.083-11.78-17.53-11.78-5.207 0-9.793 2.133-13.76 6.4-3.967 4.267-5.95 9.687-5.95 16.26 0 6.573 1.983 11.993 5.95 16.26 3.967 4.267 8.553 6.4 13.76 6.4 8.787 0 14.843-3.927 18.17-11.78l10.5 4.48c-2.133 5.12-5.567 9.407-10.3 12.86-4.74 3.46-10.607 5.19-17.6 5.19zm63.36-1.03c-6.573 0-11.587-1.747-15.04-5.24-3.46-3.5-5.19-8.45-5.19-14.85v-32.9h-11.01v-10.75h11.01v-19.2h11.78v19.2h15.36v10.75h-15.36v32c0 6.827 2.817 10.24 8.45 10.24 2.133 0 3.923-.34 5.37-1.02l4.1 10.11c-2.56 1.107-5.717 1.66-9.47 1.66zm29.69-79.48c-1.62 1.62-3.583 2.43-5.89 2.43-2.3 0-4.26-.81-5.88-2.43-1.627-1.627-2.44-3.59-2.44-5.89 0-2.307.813-4.27 2.44-5.89 1.62-1.62 3.58-2.43 5.88-2.43 2.307 0 4.27.81 5.89 2.43s2.43 3.583 2.43 5.89c0 2.3-.81 4.263-2.43 5.89m0 15.74V272h-11.77v-62.72zm18.95 7.49c6.053-6.36 13.773-9.54 23.16-9.54s17.11 3.18 23.17 9.54c6.06 6.353 9.09 14.31 9.09 23.87s-3.03 17.517-9.09 23.87c-6.06 6.36-13.783 9.54-23.17 9.54-9.387 0-17.107-3.18-23.16-9.54-6.06-6.353-9.09-14.31-9.09-23.87s3.03-17.517 9.09-23.87m8.76 40.32c4.053 4.14 8.853 6.21 14.4 6.21 5.547 0 10.347-2.07 14.4-6.21 4.053-4.14 6.08-9.623 6.08-16.45s-2.027-12.31-6.08-16.45c-4.053-4.14-8.853-6.21-14.4-6.21-5.547 0-10.347 2.07-14.4 6.21-4.053 4.14-6.08 9.623-6.08 16.45s2.027 12.31 6.08 16.45zm56.13-47.81h11.27v8.7h.51c1.707-2.987 4.393-5.523 8.06-7.61 3.673-2.093 7.6-3.14 11.78-3.14 7.767 0 13.697 2.39 17.79 7.17 4.093 4.78 6.14 11.18 6.14 19.2V272h-11.77v-36.61c0-11.607-5.163-17.41-15.49-17.41-4.867 0-8.833 1.943-11.9 5.83-3.073 3.88-4.61 8.38-4.61 13.5V272h-11.78zm91.39 64.77c-6.993 0-12.773-1.707-17.34-5.12-4.567-3.413-7.917-7.68-10.05-12.8l10.5-4.35c3.327 7.847 9 11.77 17.02 11.77 3.673 0 6.683-.81 9.03-2.43 2.347-1.62 3.52-3.753 3.52-6.4 0-4.093-2.86-6.867-8.58-8.32l-12.67-3.07c-4.013-1.027-7.81-2.97-11.39-5.83-3.587-2.853-5.38-6.713-5.38-11.58 0-5.547 2.453-10.047 7.36-13.5 4.907-3.46 10.73-5.19 17.47-5.19 5.547 0 10.497 1.26 14.85 3.78 4.353 2.513 7.467 6.117 9.34 10.81l-10.24 4.23c-2.3-5.547-7.077-8.32-14.33-8.32-3.5 0-6.443.723-8.83 2.17-2.393 1.453-3.59 3.417-3.59 5.89 0 3.587 2.773 6.02 8.32 7.3l12.42 2.94c5.887 1.367 10.237 3.713 13.05 7.04 2.82 3.327 4.23 7.083 4.23 11.27 0 5.627-2.303 10.32-6.91 14.08-4.613 3.753-10.547 5.63-17.8 5.63zM930.51 308.8c1.76 0 3.24.26 4.44.78l-1.92 4.74c-.64-.32-1.48-.48-2.52-.48-1.44 0-2.62.43-3.54 1.29-.92.86-1.38 2.11-1.38 3.75v3.72h7.68v5.04h-7.68V352h-5.52v-24.36h-5.52v-5.04h5.52v-3.9c0-3 .96-5.4 2.88-7.2 1.92-1.8 4.44-2.7 7.56-2.7zm8.52 17.31c2.84-2.98 6.46-4.47 10.86-4.47 4.4 0 8.02 1.49 10.86 4.47 2.84 2.98 4.26 6.71 4.26 11.19 0 4.48-1.42 8.21-4.26 11.19-2.84 2.98-6.46 4.47-10.86 4.47-4.4 0-8.02-1.49-10.86-4.47-2.84-2.98-4.26-6.71-4.26-11.19 0-4.48 1.42-8.21 4.26-11.19m4.11 18.9c1.9 1.94 4.15 2.91 6.75 2.91 2.6 0 4.85-.97 6.75-2.91 1.9-1.94 2.85-4.51 2.85-7.71s-.95-5.77-2.85-7.71c-1.9-1.94-4.15-2.91-6.75-2.91-2.6 0-4.85.97-6.75 2.91-1.9 1.94-2.85 4.51-2.85 7.71s.95 5.77 2.85 7.71zm31.83-9.09V352h-5.52v-29.4h5.28v4.8h.24c.56-1.6 1.71-2.92 3.45-3.96 1.74-1.04 3.43-1.56 5.07-1.56 1.64 0 3.02.24 4.14.72l-2.1 5.16c-.72-.28-1.7-.42-2.94-.42-2 0-3.77.79-5.31 2.37-1.54 1.58-2.31 3.65-2.31 6.21zm35.94-2.34V352h-5.52v-42.96h25.08v5.28h-19.56v14.1h17.64v5.16zm29.94-18.36c-.76.76-1.68 1.14-2.76 1.14-1.08 0-2-.38-2.76-1.14-.76-.76-1.14-1.68-1.14-2.76 0-1.08.38-2 1.14-2.76.76-.76 1.68-1.14 2.76-1.14 1.08 0 2 .38 2.76 1.14.76.76 1.14 1.68 1.14 2.76 0 1.08-.38 2-1.14 2.76m0 7.38V352h-5.52v-29.4zm12.12 13.32V352h-5.52v-29.4h5.28v4.8h.24c.56-1.6 1.71-2.92 3.45-3.96 1.74-1.04 3.43-1.56 5.07-1.56 1.64 0 3.02.24 4.14.72l-2.1 5.16c-.72-.28-1.7-.42-2.94-.42-2 0-3.77.79-5.31 2.37-1.54 1.58-2.31 3.65-2.31 6.21zm27.78 17.04c-4.44 0-8.05-1.48-10.83-4.44-2.78-2.96-4.17-6.7-4.17-11.22 0-4.28 1.35-7.96 4.05-11.04 2.7-3.08 6.15-4.62 10.35-4.62 4.36 0 7.85 1.42 10.47 4.26 2.62 2.84 3.93 6.64 3.93 11.4l-.06 1.02h-23.22c.16 2.96 1.15 5.3 2.97 7.02 1.82 1.72 3.95 2.58 6.39 2.58 3.96 0 6.64-1.68 8.04-5.04l4.92 2.04c-.96 2.28-2.54 4.19-4.74 5.73s-4.9 2.31-8.1 2.31m-9.12-19.2h17.04c-.12-1.68-.89-3.28-2.31-4.8s-3.53-2.28-6.33-2.28c-2.04 0-3.81.64-5.31 1.92-1.5 1.28-2.53 3-3.09 5.16zm42.9 19.2c-2.24 0-4.25-.48-6.03-1.44-1.78-.96-3.11-2.16-3.99-3.6h-.24V352h-5.28v-42.96h5.52v13.56l-.24 4.08h.24c.88-1.44 2.21-2.64 3.99-3.6 1.78-.96 3.79-1.44 6.03-1.44 3.8 0 7.08 1.5 9.84 4.5s4.14 6.72 4.14 11.16-1.38 8.16-4.14 11.16-6.04 4.5-9.84 4.5m-.9-5.04c2.56 0 4.76-.97 6.6-2.91 1.84-1.94 2.76-4.51 2.76-7.71s-.92-5.77-2.76-7.71c-1.84-1.94-4.04-2.91-6.6-2.91-2.6 0-4.81.96-6.63 2.88-1.82 1.92-2.73 4.5-2.73 7.74s.91 5.82 2.73 7.74c1.82 1.92 4.03 2.88 6.63 2.88zm28.92 5.04c-3.12 0-5.73-.9-7.83-2.7-2.1-1.8-3.15-4.18-3.15-7.14 0-3.2 1.24-5.71 3.72-7.53 2.48-1.82 5.54-2.73 9.18-2.73 3.24 0 5.9.6 7.98 1.8v-.84c0-2.16-.74-3.89-2.22-5.19-1.48-1.3-3.3-1.95-5.46-1.95-1.6 0-3.05.38-4.35 1.14-1.3.76-2.19 1.8-2.67 3.12l-5.04-2.16c.68-1.76 2.02-3.39 4.02-4.89 2-1.5 4.64-2.25 7.92-2.25 3.76 0 6.88 1.1 9.36 3.3 2.48 2.2 3.72 5.3 3.72 9.3V352h-5.28v-4.08h-.24c-2.2 3.36-5.42 5.04-9.66 5.04m.9-5.04c2.28 0 4.35-.85 6.21-2.55 1.86-1.7 2.79-3.71 2.79-6.03-1.56-1.28-3.9-1.92-7.02-1.92-2.68 0-4.7.58-6.06 1.74-1.36 1.16-2.04 2.52-2.04 4.08 0 1.44.62 2.58 1.86 3.42 1.24.84 2.66 1.26 4.26 1.26zm30.54 5.04c-3.28 0-5.99-.8-8.13-2.4-2.14-1.6-3.71-3.6-4.71-6l4.92-2.04c1.56 3.68 4.22 5.52 7.98 5.52 1.72 0 3.13-.38 4.23-1.14 1.1-.76 1.65-1.76 1.65-3 0-1.92-1.34-3.22-4.02-3.9l-5.94-1.44c-1.88-.48-3.66-1.39-5.34-2.73-1.68-1.34-2.52-3.15-2.52-5.43 0-2.6 1.15-4.71 3.45-6.33 2.3-1.62 5.03-2.43 8.19-2.43 2.6 0 4.92.59 6.96 1.77 2.04 1.18 3.5 2.87 4.38 5.07l-4.8 1.98c-1.08-2.6-3.32-3.9-6.72-3.9-1.64 0-3.02.34-4.14 1.02-1.12.68-1.68 1.6-1.68 2.76 0 1.68 1.3 2.82 3.9 3.42l5.82 1.38c2.76.64 4.8 1.74 6.12 3.3 1.32 1.56 1.98 3.32 1.98 5.28 0 2.64-1.08 4.84-3.24 6.6-2.16 1.76-4.94 2.64-8.34 2.64zm30 0c-4.44 0-8.05-1.48-10.83-4.44-2.78-2.96-4.17-6.7-4.17-11.22 0-4.28 1.35-7.96 4.05-11.04 2.7-3.08 6.15-4.62 10.35-4.62 4.36 0 7.85 1.42 10.47 4.26 2.62 2.84 3.93 6.64 3.93 11.4l-.06 1.02h-23.22c.16 2.96 1.15 5.3 2.97 7.02 1.82 1.72 3.95 2.58 6.39 2.58 3.96 0 6.64-1.68 8.04-5.04l4.92 2.04c-.96 2.28-2.54 4.19-4.74 5.73s-4.9 2.31-8.1 2.31m-9.12-19.2h17.04c-.12-1.68-.89-3.28-2.31-4.8s-3.53-2.28-6.33-2.28c-2.04 0-3.81.64-5.31 1.92-1.5 1.28-2.53 3-3.09 5.16z" fill-opacity=".54" fill="#000"/>
  </g>
</svg>
